<?xml version="1.0" encoding="UTF-8"?><svg id="Layer_2" xmlns="http://www.w3.org/2000/svg" viewBox="0 0 185.16 240.25"><defs><style>.cls-1{fill:#0b07c6;}.cls-2{fill:#fcfbfb;}.cls-3{fill:#fe0707;}</style></defs><g id="Swatch_Info_Layer"><path class="cls-1" d="M0,4L.58,0h184.54c.01,22.91-.03,45.86,0,68.76-7.22-2.36-13.98-5.94-20.9-8.97,2.93-1.15,1.54-7.45,1.99-7.97.73-.85,9.01,2.95,9.94-.52.4-1.5-1.32-4.04-2.49-4.45-.89-.31-.21,1.35-.67,1.76-2.45,2.18-21.22-12.42-9.77,5.7-2.9-.51-5.2,0-2.99,3.5-14.17-6.14-28.72-11.56-42.79-17.93-.02-11.94.01-23.93,0-35.87-37.8,0-75.66,0-113.46,0H0ZM174.16,19.94c-3.16.23-11.37-7.33-13.47-4.02-.73,1.15-1.39,8.21-1.06,10.02,1.84,10.19,16.05,14.38,16.59,3.45.11-2.28-.82-4.04-.87-5.96s2.12-6.23-1.18-7.46v3.98Z"/><path class="cls-2" d="M3.98,4c37.8,0,75.66,0,113.46,0,0,11.94-.03,23.93,0,35.87.04,23.89-.04,47.84,0,71.73-5.82.12-11.11.37-16.62-1.8-1.43-.56-2.6-2.03-4.29-2.68-8.07-3.1-17.42-1.46-24.88,2.49-1.49-3.72-14.79-4.39-18.42-3.99-5.9.65-10.27,4.89-16.18,5.72-3.7.52-7.37.02-11.05.39l-19.06,61.12c21.51.98,43.16.46,64.7.51,15.25.04,30.53-.03,45.78,0v44.33c0,1.44-21.34,13.37-23.94,15.97l-1.95.09L4.48,177.34,3.98,4ZM9.95,30.4c-.81-2.8,0-13.96,0-17.93,0-.44,2.73-1.7,1.99-3.48-7.48-.52-4.22.22-3.92,5.42.25,4.45.28,10.58-.05,15-.08,1.15-1.27,4.21-1,4.47.33.31,8.86.19,8.96-.5,1.06-7.58-4.51,2.11-5.98-2.98ZM38.81,8.99c-8.72-.51-3.44.93-2.93,5.42.66,5.81.02,13.75-1.05,19.48,6.24.7,3.19-.92,2.93-5.42-.36-6.23-.25-13.45,1.05-19.47ZM63.55,10.13c-2.13-3.06-8.52.28-6.81,4.83,2.07-.67,2.01-6.37,4.95-3.99.57.46.08,6.69,2,6.97-.36-1.83.64-6.69-.13-7.81ZM88.58,8.98h-9.95c-.26,1.99,1.58,2.57,1.96,4.51.59,3.01.41,13.55.11,16.99-.21,2.38-2.84.42-2.07,3.41h10.95s-.01-6.96-.01-6.96c-1.96-.02-1.09,4.16-2.11,4.85-.89.59-3.53-.08-4.85.13v-9.97c.82.1,2.88-.15,2.99,0,.36.5-.84,5.23,1,3.49v-8.46c-2.43,1.15.79,4.02-3.98,2.99-.08-3.35-1.24-12.26,3.83-8.83.85.58.28,4.02,2.12,3.84v-5.98ZM106.49,29.9c.34.86.54,1.22,1,1.99.23.38.78.65,1,1,.32.5.29,4.88,4.03.55,2.47-2.87,3.3-12.01,2.69-15.76-.69-4.27-2.51-11.29-7.74-8.22-2.65,1.56-3.26,11.93-2.96,14.96s1.18,3.43,1.99,5.47ZM62.7,31.91c-.11-.1-1.96.08-2.93-.53-1.63-1.02-2.12-4.4-2.81-6.19l-1.22-9.22c.42,5.01-1.13,11.65,1.21,16.21,2.87,5.6,7.03.93,5.75-.26ZM63.68,30.9v-2.98h-.98v2.98h.98ZM43.79,99.64v-13.95l8.95,8.97-3.97-11.95c.87-.94,9.22,5.48,10.46,5.96,1.69.66,2.02-1.32,1.47-1.96-.08-.1-1.43-.22-2.32-1.12-2.56-2.59-5.56-4.79-7.62-7.86,3.57-.74,6.09,1.52,9.42,2.01,1.28.19,5.52,1,5.51-1.52,0-.47-7.53-2.47-8.93-3.04-1.18-.48-3.99-1.03-4.01-2.44l13.92-3.99-13.92-1.02,10.94-8.95-12.93,3.97c-1.23-1.15,7.6-9.98,5.96-11.95-.43-.52-9.58,9.34-10.94,7.96l2.98-12.94-7.94,10.96c-.4-4.92-.05-11.62-2.5-15.93l-2.49,14.94-7.94-10.96,2.97,13.95c-2.35.26-10.05-8.97-10.93-7.96-1.63,1.84,6.55,9.35,6.48,11.93l-13.45-3.95,10.95,8.95-15.93,1.5,15.93,3.5-12.93,6.95c5.42,1.02,9.73-1.75,14.93-1.97l-10.95,11.94c2.78.38,12.37-8.41,13.93-6.95.51.47-5.75,10.67-4.97,12.94l9.94-10.95v12.94s4.97-10.95,4.97-10.95c.98,3.4,1.95,6.91,3.26,10.2.42,1.06.29,2.96,1.73,2.74Z"/><path class="cls-2" d="M106.49,29.9c-.47-2.95-.82-22.69,4.96-18.92,1.84,1.2,3.93,23.08-2.97,21.91-.07-.01-.87-.85-1-1-.07-.09-.98-1.88-1-1.99Z"/><path class="cls-2" d="M71.66,111.59c3.6,0,6.5-2.25,9.69-2.75,10.02-1.58,15.14,5.73,23.94,6.53,3.23.29,5.34-1.22,8.24-.38l15.87,51.86c-.45,4.67-8.74,3.85-12.49,3.55-10.27-.81-19.44-6.68-29.85-7.03-4.81-.16-13.66,3.14-15.39,3.01-3.38-.26-8.78-3.19-14.44-3.06-13.65.32-25.18,9.4-39.57,6.78-1.5-.27-3.05-.54-2.8-2.21l15.02-53.31c3.36.15,5.62,1.17,9.18.77,6.83-.78,13.26-6.45,19.22-6.79,5.07-.29,8.89,3.03,13.4,3.03Z"/><path class="cls-1" d="M71.66,109.6c.18.45-.12,1.39,0,1.99-4.51,0-8.33-3.32-13.4-3.03-5.96.34-12.39,6.01-19.22,6.79-3.55.4-5.81-.62-9.18-.77l-15.02,53.31c-.25,1.68,1.31,1.94,2.8,2.21,14.39,2.62,25.92-6.46,39.57-6.78,5.66-.13,11.07,2.8,14.44,3.06v6.97c-21.54-.06-43.19.47-64.7-.51l19.06-61.12c3.68-.37,7.35.13,11.05-.39,5.91-.83,10.27-5.07,16.18-5.72,3.63-.4,16.93.27,18.42,3.99Z"/><path class="cls-2" d="M177.15,164.39c.46.3,1.73-.68,2.03.58,2.02,8.64-5.15,21.23-12.98,11.88-5.82-6.95-.97-17.74-3.43-21.47-.99-1.51-13.4-3.46-16.09-3.82-3.24-.43-10.58,1.25-6.91-4.17,3.14-4.64,23.57,4.96,24.44,4.04.26-.27-.07-5.98,0-7.47s.97-2.89,1.01-3.9c.08-1.77-24.98-7.54-25.85-8.59-.47-.56-.16-3.73.93-4.49,1.69-1.18,20.79,7.77,24.42,8.5l-.51-2.96c4.68-1.37,2.35,3.19,4.22,4.76,1.09.91,10.12,2.52,10.71,3.22,1.03,1.22.07,2.01-1.5,2.01-3.31,0-6.25-1.54-9.43-2.03l-2.02,12.39c5.62,3.34,10.34,4.41,10.97,11.52-1.54-.99-8.6-10.43-11.49-6.02-1.83,2.8-.82,14.6,2.96,17.04,8.46,5.44,9.01-5.6,8.53-11.02Z"/><path class="cls-2" d="M174.15,75.73l.02-4.98c3.48,1.6,1.18,6.17,1.17,8.46,0,3.03,1.72,4.29.05,8.21-3.33,7.83-14.36.63-15.75-5.67-.6-2.73-.35-12.58,3.62-11.57,1.59.4,10.5,6.01,10.89,5.55ZM173.02,86.54c3.57-2.48-1.27-9.09-5.39-9.79-12.23-2.08-.89,14.17,5.39,9.79Z"/><path class="cls-2" d="M174.16,107.6c.68-.63-3.01-4.93.99-3.98-.14,6.45,4.5,16.85-5.35,15.89-1.08-.1-9.14-2.67-9.42-3.08-.34-.49-.27-3.7-.14-3.84.98-1.02,7.64,2.59,9.52,2.92,5.83,1.02,3.77-3.18.13-5.12-1.98-1.06-9.23-2.51-9.54-2.89-.27-.32-.24-3.74-.11-3.87,1.89-1.88,11.94,5.82,13.93,3.97Z"/><path class="cls-2" d="M160.23,57.8c-2.21-3.49.1-4,2.99-3.5-11.46-18.12,7.31-3.51,9.77-5.7.46-.41-.22-2.08.67-1.76,1.17.41,2.89,2.95,2.49,4.45-.93,3.47-9.21-.33-9.94.52-.45.53.94,6.82-1.99,7.97-1.49-.65-2.76-1.46-3.98-1.99Z"/><path class="cls-2" d="M174.16,19.94v-3.98c3.31,1.23,1.14,5.53,1.19,7.46s.98,3.69.87,5.96c-.55,10.94-14.75,6.75-16.59-3.45-.33-1.81.33-8.87,1.06-10.02,2.1-3.31,10.31,4.25,13.47,4.02ZM173.02,31.76c.55-.39,1.11-3.18.97-4.12-.7-4.66-12.29-11.13-11.75-2.28.28,4.53,7.64,8.59,10.78,6.4Z"/><path class="cls-3" d="M43.79,99.64c-1.45.22-1.31-1.67-1.73-2.74-1.3-3.3-2.27-6.81-3.26-10.2l-4.95,10.95v-12.94s-9.95,10.95-9.95,10.95c-.78-2.27,5.47-12.47,4.97-12.94-1.56-1.46-11.15,7.33-13.93,6.95l10.95-11.94c-5.2.22-9.51,3-14.93,1.97l12.93-6.95-15.93-3.5,15.93-1.5-10.95-8.95,13.45,3.95c.08-2.58-8.11-10.09-6.48-11.93.89-1,8.58,8.22,10.93,7.96l-2.97-13.95,7.94,10.96,2.49-14.94c2.45,4.31,2.1,11.02,2.5,15.93l7.94-10.96-2.98,12.94c1.36,1.38,10.5-8.48,10.94-7.96,1.65,1.97-7.19,10.8-5.96,11.95l12.93-3.97-10.94,8.95,13.92,1.02-13.92,3.99c.02,1.41,2.83,1.96,4.01,2.44,1.4.57,8.93,2.56,8.93,3.04,0,2.52-4.23,1.71-5.51,1.52-3.34-.5-5.85-2.75-9.42-2.01,2.06,3.06,5.06,5.26,7.62,7.86.89.9,2.24,1.02,2.32,1.12.55.64.22,2.62-1.47,1.96-1.24-.48-9.59-6.9-10.46-5.96l3.97,11.95-8.95-8.97v13.95Z"/><path class="cls-1" d="M88.58,8.98v5.98c-1.86.18-1.29-3.26-2.14-3.84-5.07-3.43-3.91,5.48-3.83,8.83,4.77,1.03,1.55-1.84,3.97-2.99v8.46c-1.83,1.74-.63-2.99-.99-3.49-.1-.14-2.17.1-2.98,0v9.97c1.31-.21,3.95.46,4.84-.13,1.03-.69.15-4.87,2.11-4.85v6.97s-10.93,0-10.93,0c-.77-2.99,1.86-1.03,2.07-3.41.3-3.43.49-13.98-.11-16.99-.38-1.94-2.22-2.52-1.96-4.5h9.95Z"/><path class="cls-1" d="M108.48,32.89c-.22-.34-.77-.61-1-1,.12.15.93.98,1,1Z"/><path class="cls-1" d="M107.48,31.9c-.46-.77-.65-1.13-1-1.99.02.11.92,1.91,1,1.99Z"/><path class="cls-1" d="M106.49,29.9c-.81-2.04-1.7-2.52-1.99-5.47s.32-13.4,2.96-14.96c5.23-3.08,7.05,3.95,7.74,8.22.61,3.74-.22,12.89-2.69,15.76-3.74,4.34-3.72-.05-4.03-.55,6.91,1.17,4.82-20.71,2.97-21.91-5.79-3.77-5.44,15.98-4.96,18.92Z"/><path class="cls-1" d="M9.95,30.4c1.47,5.1,7.04-4.6,5.98,2.98-.1.69-8.63.8-8.96.5-.28-.26.91-3.32,1-4.47.32-4.42.3-10.56.05-15-.3-5.2-3.56-5.95,3.92-5.42.74,1.78-1.99,3.04-1.99,3.48,0,3.97-.81,15.13,0,17.93Z"/><path class="cls-1" d="M38.81,8.99c-1.3,6.03-1.4,13.24-1.05,19.47.26,4.5,3.31,6.12-2.93,5.42,1.07-5.72,1.71-13.67,1.05-19.48-.51-4.49-5.8-5.93,2.93-5.42Z"/><path class="cls-1" d="M62.7,31.91c1.28,1.2-2.87,5.87-5.75.26-2.34-4.55-.79-11.19-1.21-16.21l1.22,9.22c.69,1.8,1.19,5.17,2.81,6.19.97.61,2.82.43,2.93.53Z"/><path class="cls-1" d="M63.55,10.13c.78,1.12-.23,5.98.13,7.81-1.92-.27-1.43-6.51-2-6.97-2.94-2.38-2.88,3.32-4.95,3.99-1.71-4.55,4.69-7.89,6.81-4.83Z"/><rect class="cls-1" x="62.71" y="27.92" width=".98" height="2.98"/><path class="cls-3" d="M3.98,4l.5,173.34,87.07,56.4,1.95-.09c2.6-2.59,23.94-14.53,23.94-15.97v-44.33c-15.25-.03-30.53.04-45.78,0v-6.97c1.73.14,10.58-3.17,15.39-3.01,10.41.35,19.59,6.22,29.85,7.03,3.75.3,12.04,1.12,12.49-3.55l-15.87-51.86c-2.9-.84-5.01.67-8.24.38-8.8-.8-13.92-8.11-23.94-6.53-3.19.5-6.09,2.75-9.69,2.75-.12-.61.18-1.54,0-1.99,7.46-3.94,16.8-5.58,24.88-2.49,1.69.65,2.86,2.12,4.29,2.68,5.51,2.17,10.8,1.93,16.62,1.8-.04-23.89.04-47.84,0-71.73,14.07,6.37,28.63,11.79,42.79,17.93,1.22.53,2.49,1.34,3.98,1.99,6.92,3.03,13.68,6.6,20.9,8.97.04,36.78.14,73.61-.2,110.38l-91.14,58.64c-1.21.27-1.12,2.2-1.23,2.32-.72.79-1.1-1.52-2.19-2.32-24.76-18.02-54.03-34.47-79.92-51.44-2.18-1.43-9.69-5.87-10.24-7.68L0,4h3.98ZM174.15,75.73c-.39.47-9.31-5.14-10.89-5.55-3.97-1.01-4.22,8.84-3.62,11.57,1.39,6.3,12.42,13.5,15.75,5.67,1.67-3.92-.06-5.18-.05-8.21,0-2.29,2.31-6.87-1.17-8.46l-.02,4.98ZM174.16,107.6c-1.99,1.85-12.04-5.86-13.93-3.97-.14.14-.16,3.55.11,3.87.32.38,7.56,1.84,9.54,2.89,3.64,1.94,5.7,6.14-.13,5.12-1.87-.33-8.54-3.94-9.52-2.92-.13.14-.2,3.35.14,3.84.28.41,8.34,2.98,9.42,3.08,9.86.96,5.21-9.44,5.35-15.89-4-.95-.31,3.35-.99,3.98ZM177.15,164.39c-.64-7.11-5.36-8.18-10.97-11.52l2.02-12.39c3.19.49,6.12,2.02,9.43,2.03,1.58,0,2.54-.79,1.5-2.01-.59-.7-9.62-2.31-10.71-3.22-1.87-1.56.46-6.12-4.22-4.76l.51,2.96c-3.63-.73-22.73-9.69-24.42-8.5-1.09.76-1.4,3.93-.93,4.49.88,1.04,25.93,6.82,25.85,8.59-.04,1.01-.95,2.43-1.01,3.9s.26,7.2,0,7.47c-.87.92-21.3-8.68-24.44-4.04-3.67,5.42,3.67,3.74,6.91,4.17,2.69.36,15.09,2.31,16.09,3.82,2.46,3.73-2.39,14.52,3.43,21.47,7.83,9.34,15.01-3.24,12.98-11.88-.3-1.26-1.57-.28-2.03-.58.48,5.42-.07,16.46-8.53,11.02-3.78-2.43-4.79-14.24-2.96-17.04,2.89-4.41,9.94,5.02,11.49,6.02Z"/><path class="cls-3" d="M173.02,86.54c-6.29,4.37-17.63-11.87-5.39-9.79,4.12.7,8.96,7.31,5.39,9.79Z"/><path class="cls-1" d="M173.02,31.76c-3.14,2.19-10.51-1.87-10.78-6.4-.54-8.85,11.05-2.38,11.75,2.28.14.94-.41,3.73-.97,4.12Z"/></g></svg>