<svg width="162" xmlns="http://www.w3.org/2000/svg" height="62" id="screenshot-40c6b950-9038-8008-8006-74509a3d1329" viewBox="0 0 162 62" xmlns:xlink="http://www.w3.org/1999/xlink" fill="none" version="1.1"><g id="shape-40c6b950-9038-8008-8006-74509a3d1329" rx="0" ry="0" style="fill: rgb(0, 0, 0);"><g id="shape-40c6b950-9038-8008-8006-74509a3d132e" style="display: none;"><g class="fills" id="fills-40c6b950-9038-8008-8006-74509a3d132e"><rect width="162" height="62" x="0" transform="matrix(1.000000, 0.000000, 0.000000, 1.000000, 0.000000, 0.000000)" style="fill: none;" ry="0" fill="none" rx="0" y="0"/></g></g><g id="shape-40c6b950-9038-8008-8006-74509a3d132f"><defs style="fill: rgb(0, 0, 0);"><g id="shape-40c6b950-9038-8008-8006-74509a3d133e"><style>#shape-40c6b950-9038-8008-8006-74509a3d1329{ .cls-1{fill:#fd9143;}.cls-2{fill:#ececde;} }</style></g></defs></g><g id="shape-40c6b950-9038-8008-8006-74509a3d1330"><g class="fills" id="fills-40c6b950-9038-8008-8006-74509a3d1330"><path d="M80.53926086425781,11.6708984375C79.56135559082031,11.0048828125,78.57594299316406,10.673828125,77.57917785644531,10.673828125C77.03755187988281,10.673828125,76.53730773925781,10.767822265625,76.06715393066406,10.9559326171875C75.59700012207031,11.1441650390625,75.19081115722656,11.407470703125,74.83723449707031,11.7498779296875C74.48371887207031,12.09228515625,74.20912170410156,12.49853515625,74.01356506347656,12.965087890625C73.81416320800781,13.431640625,73.71638488769531,13.9583740234375,73.71638488769531,14.5377197265625C73.71638488769531,15.1171875,73.81416320800781,15.61376953125,74.01356506347656,16.080322265625C74.20912170410156,16.546875,74.47993469238281,16.9532470703125,74.82215881347656,17.2955322265625C75.16444396972656,17.637939453125,75.57441711425781,17.905029296875,76.05213928222656,18.0894775390625C76.52980041503906,18.277587890625,77.03755187988281,18.37158203125,77.57917785644531,18.37158203125C78.63984680175781,18.37158203125,79.62525939941406,18.0103759765625,80.53926086425781,17.280517578125L80.53926086425781,22.0775146484375C79.14759826660156,22.6795654296875,77.83119201660156,22.98046875,76.58241271972656,22.98046875C75.42024230957031,22.98046875,74.31446838378906,22.7811279296875,73.26502990722656,22.3897705078125C72.21565246582031,21.9947509765625,71.29042053222656,21.430419921875,70.49299621582031,20.6929931640625C69.69184875488281,19.95556640625,69.05622863769531,19.0714111328125,68.57856750488281,18.0443115234375C68.10084533691406,17.0172119140625,67.86390686035156,15.86962890625,67.86390686035156,14.6016845703125C67.86390686035156,13.3338623046875,68.09333801269531,12.1749267578125,68.54847717285156,11.1290283203125C69.00355529785156,10.079345703125,69.62794494628906,9.1763916015625,70.41780090332031,8.420166015625C71.20765686035156,7.6639404296875,72.14796447753906,7.0694580078125,73.23493957519531,6.644287109375C74.32569885253906,6.21923828125,75.49171447753906,6.0047607421875,76.74043273925781,6.0047607421875C78.10951232910156,6.0047607421875,79.37702941894531,6.29443359375,80.53926086425781,6.8775634765625L80.53926086425781,11.674560546875Z" class="cls-2"/></g></g><g id="shape-40c6b950-9038-8008-8006-74509a3d1331"><g class="fills" id="fills-40c6b950-9038-8008-8006-74509a3d1331"><path d="M88.82527160644531,15.440673828125C88.82527160644531,17.8712158203125,89.96870422363281,19.08642578125,92.25172424316406,19.08642578125C93.47792053222656,19.08642578125,94.39936828613281,18.5860595703125,95.02375793457031,17.5927734375L100.47377014160156,17.5927734375C99.37178039550781,21.249755859375,96.62226867675781,23.0745849609375,92.22163391113281,23.0745849609375C90.87135314941406,23.0745849609375,89.63771057128906,22.871337890625,88.51679992675781,22.4688720703125C87.39595031738281,22.0625,86.43312072753906,21.48681640625,85.63575744628906,20.7381591796875C84.83460998535156,19.9893798828125,84.21778869628906,19.0977783203125,83.78144836425781,18.059326171875C83.34510803222656,17.0208740234375,83.12696838378906,15.8583984375,83.12696838378906,14.5716552734375C83.12696838378906,13.284912109375,83.33387756347656,12.0433349609375,83.75135803222656,10.974853515625C84.16511535644531,9.90625,84.75935363769531,8.9957275390625,85.52662658691406,8.2470703125C86.29396057128906,7.4984130859375,87.22297668457031,6.9227294921875,88.31373596191406,6.516357421875C89.40449523925781,6.110107421875,90.63441467285156,5.9068603515625,92.00349426269531,5.9068603515625C93.37263488769531,5.9068603515625,94.56867980957031,6.110107421875,95.64814758300781,6.516357421875C96.72761535644531,6.9227294921875,97.64155578613281,7.5096435546875,98.39009094238281,8.2772216796875C99.13856506347656,9.044677734375,99.70649719238281,9.9852294921875,100.10145568847656,11.09521484375C100.49635314941406,12.205078125,100.69190979003906,13.4580078125,100.69190979003906,14.8499755859375L100.69190979003906,15.440673828125L88.82527160644531,15.440673828125ZM95.42622375488281,12.1712646484375C95.23817443847656,11.381103515625,94.85450744628906,10.7490234375,94.27528381347656,10.271240234375C93.69227600097656,9.79345703125,92.98896789550781,9.556396484375,92.15773010253906,9.556396484375C91.28511047363281,9.556396484375,90.57423400878906,9.785888671875,90.02510070800781,10.2410888671875C89.47596740722656,10.6964111328125,89.12617492675781,11.343505859375,88.98323059082031,12.1712646484375L95.43000793457031,12.1712646484375Z" class="cls-2"/></g></g><g id="shape-40c6b950-9038-8008-8006-74509a3d1332"><g class="fills" id="fills-40c6b950-9038-8008-8006-74509a3d1332"><path d="M103.90028381347656,6.49755859375L109.53834533691406,6.49755859375L109.53834533691406,9.1162109375C110.14015197753906,8.1605224609375,110.87739562988281,7.4306640625,111.74995422363281,6.9189453125C112.62257385253906,6.4110107421875,113.63813781738281,6.1551513671875,114.80030822753906,6.1551513671875L115.28175354003906,6.1551513671875C115.45851135253906,6.1551513671875,115.66163635253906,6.177734375,115.88728332519531,6.21923828125L115.88728332519531,11.610595703125C115.13887023925781,11.2381591796875,114.33015441894531,11.050048828125,113.45759582519531,11.050048828125C112.14869689941406,11.050048828125,111.16700744628906,11.4412841796875,110.51252746582031,12.2200927734375C109.85804748535156,12.9989013671875,109.53083801269531,14.1351318359375,109.53083801269531,15.632568359375L109.53083801269531,22.4876708984375L103.89277648925781,22.4876708984375L103.89277648925781,6.49755859375Z" class="cls-2"/></g></g><g id="shape-40c6b950-9038-8008-8006-74509a3d1333"><g class="fills" id="fills-40c6b950-9038-8008-8006-74509a3d1333"><path d="M118.41108703613281,6.49755859375L124.04914855957031,6.49755859375L124.04914855957031,9.1162109375C124.65101623535156,8.1605224609375,125.38819885253906,7.4306640625,126.26081848144531,6.9189453125C127.13337707519531,6.4110107421875,128.14894104003906,6.1551513671875,129.31117248535156,6.1551513671875L129.7925567626953,6.1551513671875C129.96937561035156,6.1551513671875,130.1724395751953,6.177734375,130.39808654785156,6.21923828125L130.39808654785156,11.610595703125C129.64967346191406,11.2381591796875,128.8410186767578,11.050048828125,127.96833801269531,11.050048828125C126.65950012207031,11.050048828125,125.67781066894531,11.4412841796875,125.02333068847656,12.2200927734375C124.36891174316406,12.9989013671875,124.04170227050781,14.1351318359375,124.04170227050781,15.632568359375L124.04170227050781,22.4876708984375L118.40357971191406,22.4876708984375L118.40357971191406,6.49755859375Z" class="cls-2"/></g></g><g id="shape-40c6b950-9038-8008-8006-74509a3d1334"><g class="fills" id="fills-40c6b950-9038-8008-8006-74509a3d1334"><path d="M132.42543029785156,14.349609375C132.42543029785156,13.16455078125,132.6624298095703,12.058349609375,133.14002990722656,11.03125C133.61781311035156,10.004150390625,134.2835235595703,9.108642578125,135.13356018066406,8.3524169921875C135.9835968017578,7.59619140625,136.9953155517578,6.9979248046875,138.16883850097656,6.5615234375C139.3423614501953,6.1251220703125,140.6249542236328,5.9068603515625,142.01661682128906,5.9068603515625C143.4082794189453,5.9068603515625,144.6569366455078,6.121337890625,145.83045959472656,6.5465087890625C147.00392150878906,6.9716796875,148.01954650878906,7.5660400390625,148.88087463378906,8.3223876953125C149.74220275878906,9.0823974609375,150.41163635253906,9.9852294921875,150.88941955566406,11.03125C151.36695861816406,12.0809326171875,151.60401916503906,13.23974609375,151.60401916503906,14.50390625C151.60401916503906,15.76806640625,151.35939025878906,16.9306640625,150.87062072753906,17.9765625C150.38160705566406,19.0262451171875,149.71217346191406,19.92919921875,148.86207580566406,20.6854248046875C148.01197814941406,21.4454345703125,146.98890686035156,22.0323486328125,145.79286193847656,22.4462890625C144.6005401611328,22.860107421875,143.3067169189453,23.07080078125,141.9149932861328,23.07080078125C140.5233917236328,23.07080078125,139.2783966064453,22.8638916015625,138.11622619628906,22.4462890625C136.95399475097656,22.0323486328125,135.94972229003906,21.4378662109375,135.11097717285156,20.67041015625C134.26844787597656,19.9029541015625,133.61024475097656,18.98486328125,133.1325225830078,17.91259765625C132.65492248535156,16.8441162109375,132.41798400878906,15.6551513671875,132.41798400878906,14.3458251953125ZM138.37574768066406,14.41357421875C138.37574768066406,14.9554443359375,138.47352600097656,15.4482421875,138.67286682128906,15.8922119140625C138.86842346191406,16.3399658203125,139.1280059814453,16.7274169921875,139.45143127441406,17.062255859375C139.7710723876953,17.3934326171875,140.1585235595703,17.6529541015625,140.6023712158203,17.841064453125C141.04994201660156,18.0291748046875,141.52015686035156,18.123291015625,142.0203399658203,18.123291015625C142.5205841064453,18.123291015625,142.9907989501953,18.0291748046875,143.4383087158203,17.841064453125C143.8859405517578,17.6529541015625,144.26954650878906,17.3934326171875,144.5893096923828,17.062255859375C144.91273498535156,16.731201171875,145.16847229003906,16.3399658203125,145.3678741455078,15.8922119140625C145.5634307861328,15.4444580078125,145.6649932861328,14.962890625,145.6649932861328,14.4437255859375C145.6649932861328,13.9244384765625,145.56715393066406,13.4730224609375,145.3678741455078,13.0252685546875C145.16847229003906,12.5775146484375,144.91273498535156,12.1900634765625,144.5893096923828,11.855224609375C144.2658233642578,11.5240478515625,143.8821563720703,11.2645263671875,143.4383087158203,11.076416015625C142.9907989501953,10.8883056640625,142.5205841064453,10.794189453125,142.0203399658203,10.794189453125C141.52015686035156,10.794189453125,141.04994201660156,10.8883056640625,140.6023712158203,11.076416015625C140.1547393798828,11.2645263671875,139.7710723876953,11.5240478515625,139.45143127441406,11.855224609375C139.1280059814453,12.186279296875,138.86842346191406,12.570068359375,138.67286682128906,13.0064697265625C138.47352600097656,13.44287109375,138.37574768066406,13.909423828125,138.37574768066406,14.4097900390625Z" class="cls-2"/></g></g><g id="shape-40c6b950-9038-8008-8006-74509a3d1335"><g class="fills" id="fills-40c6b950-9038-8008-8006-74509a3d1335"><path d="M72.39619445800781,28.10107421875L78.06440734863281,28.10107421875L78.06440734863281,53.9598388671875L72.39619445800781,53.9598388671875L72.39619445800781,52.1839599609375C71.19264221191406,53.7001953125,69.56025695800781,54.4564208984375,67.50660705566406,54.4564208984375C66.34437561035156,54.4564208984375,65.27619934082031,54.23828125,64.29829406738281,53.8017578125C63.32032775878906,53.3653564453125,62.47029113769531,52.763427734375,61.74440002441406,51.995849609375C61.01844787597656,51.2283935546875,60.45051574707031,50.3253173828125,60.04811096191406,49.2869873046875C59.64186096191406,48.24853515625,59.44252014160156,47.1273193359375,59.44252014160156,45.9234619140625C59.44252014160156,44.7796630859375,59.63435363769531,43.696044921875,60.01795959472656,42.6689453125C60.40162658691406,41.641845703125,60.94703674316406,40.74267578125,61.65412902832031,39.97509765625C62.36122131347656,39.2076416015625,63.20753479003906,38.5980224609375,64.19294738769531,38.1541748046875C65.17842102050781,37.7064208984375,66.26539611816406,37.484375,67.44642639160156,37.484375C69.43989562988281,37.484375,71.09107971191406,38.180419921875,72.39991760253906,39.572509765625L72.39991760253906,28.108642578125ZM65.29499816894531,45.9234619140625C65.29499816894531,46.442626953125,65.38899230957031,46.9241943359375,65.57704162597656,47.3719482421875C65.76515197753906,47.819580078125,66.01716613769531,48.2071533203125,66.34065246582031,48.5419921875C66.66029357910156,48.873046875,67.04774475097656,49.1326904296875,67.49153137207031,49.32080078125C67.93916320800781,49.5089111328125,68.42060852050781,49.60302734375,68.93959045410156,49.60302734375C69.45869445800781,49.60302734375,69.90998840332031,49.5089111328125,70.35762023925781,49.32080078125C70.80519104003906,49.1326904296875,71.18885803222656,48.873046875,71.50856018066406,48.5419921875C71.82826232910156,48.2109375,72.08778381347656,47.8271484375,72.28712463378906,47.3907470703125C72.48274230957031,46.954345703125,72.58424377441406,46.48779296875,72.58424377441406,45.9873046875C72.58424377441406,45.4869384765625,72.48646545410156,45.0167236328125,72.28712463378906,44.5689697265625C72.09150695800781,44.1212158203125,71.83198547363281,43.733642578125,71.50856018066406,43.3988037109375C71.18507385253906,43.0677490234375,70.80146789550781,42.8082275390625,70.35762023925781,42.6199951171875C69.90998840332031,42.431884765625,69.43989562988281,42.337890625,68.93959045410156,42.337890625C68.43940734863281,42.337890625,67.96925354003906,42.431884765625,67.52162170410156,42.6199951171875C67.07405090332031,42.8082275390625,66.69038391113281,43.0677490234375,66.37074279785156,43.3988037109375C66.04725646972656,43.72998046875,65.78773498535156,44.1099853515625,65.59211730957031,44.5350341796875C65.39277648925781,44.960205078125,65.29499816894531,45.4229736328125,65.29499816894531,45.9234619140625Z" class="cls-2"/></g></g><g id="shape-40c6b950-9038-8008-8006-74509a3d1336"><g class="fills" id="fills-40c6b950-9038-8008-8006-74509a3d1336"><path d="M81.52095031738281,31.8408203125C81.52095031738281,31.4044189453125,81.60371398925781,30.994384765625,81.76918029785156,30.610595703125C81.93464660644531,30.226806640625,82.16413879394531,29.88818359375,82.45368957519531,29.5985107421875C82.74336242675781,29.308837890625,83.08186340332031,29.079345703125,83.46553039550781,28.9136962890625C83.84913635253906,28.7481689453125,84.25910949707031,28.6654052734375,84.69544982910156,28.6654052734375C85.13172912597656,28.6654052734375,85.54170227050781,28.7481689453125,85.92536926269531,28.9136962890625C86.30897521972656,29.079345703125,86.64747619628906,29.308837890625,86.93714904785156,29.5985107421875C87.22676086425781,29.88818359375,87.45619201660156,30.226806640625,87.62165832519531,30.610595703125C87.78718566894531,30.994384765625,87.86988830566406,31.4044189453125,87.86988830566406,31.8408203125C87.86988830566406,32.27734375,87.78718566894531,32.6873779296875,87.62165832519531,33.0711669921875C87.45619201660156,33.4549560546875,87.22676086425781,33.7935791015625,86.93714904785156,34.083251953125C86.64747619628906,34.3729248046875,86.30897521972656,34.6024169921875,85.92536926269531,34.76806640625C85.54170227050781,34.9334716796875,85.13172912597656,35.016357421875,84.69544982910156,35.016357421875C84.25910949707031,35.016357421875,83.84913635253906,34.9334716796875,83.46553039550781,34.76806640625C83.08186340332031,34.6024169921875,82.74336242675781,34.3729248046875,82.45368957519531,34.083251953125C82.16413879394531,33.7935791015625,81.93464660644531,33.4549560546875,81.76918029785156,33.0711669921875C81.60371398925781,32.6873779296875,81.52095031738281,32.27734375,81.52095031738281,31.8408203125ZM87.53138732910156,37.977294921875L87.53138732910156,53.9598388671875L81.89332580566406,53.9598388671875L81.89332580566406,37.977294921875L87.53138732910156,37.977294921875Z" class="cls-2"/></g></g><g id="shape-40c6b950-9038-8008-8006-74509a3d1337"><g class="fills" id="fills-40c6b950-9038-8008-8006-74509a3d1337"><path d="M109.27131652832031,37.977294921875L109.27131652832031,52.8687744140625C109.27131652832031,53.7603759765625,109.21864318847656,54.561767578125,109.11708068847656,55.2691650390625C109.01179504394531,55.9764404296875,108.86885070800781,56.5972900390625,108.68080139160156,57.1390380859375C108.43257141113281,57.82373046875,108.04139709472656,58.46337890625,107.51106262207031,59.0540771484375C106.98072814941406,59.644775390625,106.34510803222656,60.16015625,105.59657287597656,60.5966796875C104.84809875488281,61.0330810546875,104.00184631347656,61.37548828125,103.05781555175781,61.623779296875C102.11372375488281,61.8720703125,101.09059143066406,61.9962158203125,99.98860168457031,61.9962158203125C98.74360656738281,61.9962158203125,97.60023498535156,61.8419189453125,96.56208801269531,61.5296630859375C95.52400207519531,61.2174072265625,94.61378479003906,60.7884521484375,93.83522033691406,60.2354736328125C93.05665588378906,59.6861572265625,92.41725158691406,59.0390625,91.92073059082031,58.3052978515625C91.42427062988281,57.56787109375,91.08949279785156,56.7628173828125,90.92402648925781,55.889892578125L97.27674865722656,55.889892578125C97.67170715332031,56.950927734375,98.56306457519531,57.4776611328125,99.95472717285156,57.4776611328125C101.13954162597656,57.4776611328125,102.04597473144531,57.146484375,102.68165588378906,56.4805908203125C103.31355285644531,55.814697265625,103.63325500488281,54.892822265625,103.63325500488281,53.707763671875L103.63325500488281,52.18017578125C103.21949768066406,52.5751953125,102.81703186035156,52.902587890625,102.43336486816406,53.1622314453125C102.04975891113281,53.4217529296875,101.65858459472656,53.63623046875,101.26741027832031,53.8017578125C100.87251281738281,53.96728515625,100.45869445800781,54.0877685546875,100.02247619628906,54.1591796875C99.58613586425781,54.230712890625,99.10847473144531,54.268310546875,98.58943176269531,54.268310546875C97.44599914550781,54.268310546875,96.40034484863281,54.0689697265625,95.44502258300781,53.6776123046875C94.48970031738281,53.2825927734375,93.66596984863281,52.7332763671875,92.97010803222656,52.0260009765625C92.27430725097656,51.318603515625,91.73646545410156,50.47216796875,91.34901428222656,49.486328125C90.96540832519531,48.5006103515625,90.77357482910156,47.40576171875,90.77357482910156,46.197998046875C90.77357482910156,44.9903564453125,90.98042297363281,43.8353271484375,91.39790344238281,42.7855224609375C91.81172180175781,41.73583984375,92.37965393066406,40.8216552734375,93.09425354003906,40.0428466796875C93.80885314941406,39.2640380859375,94.66267395019531,38.6507568359375,95.64814758300781,38.2030029296875C96.63356018066406,37.7552490234375,97.70930480957031,37.5333251953125,98.87153625488281,37.5333251953125C100.75959777832031,37.5333251953125,102.35066223144531,38.2406005859375,103.63703918457031,39.6514892578125L103.63703918457031,37.9697265625L109.27503967285156,37.9697265625ZM96.62605285644531,45.893310546875C96.62605285644531,46.4124755859375,96.72010803222656,46.89404296875,96.90815734863281,47.341796875C97.09620666503906,47.78955078125,97.34822082519531,48.177001953125,97.67170715332031,48.5081787109375C97.99140930175781,48.8392333984375,98.37879943847656,49.098876953125,98.82258605957031,49.2869873046875C99.27015686035156,49.47509765625,99.75160217285156,49.569091796875,100.27070617675781,49.569091796875C100.78974914550781,49.569091796875,101.24110412597656,49.47509765625,101.68867492675781,49.2869873046875C102.13630676269531,49.098876953125,102.51991271972656,48.8392333984375,102.83961486816406,48.5081787109375C103.15931701660156,48.177001953125,103.41877746582031,47.7857666015625,103.61817932128906,47.341796875C103.81373596191406,46.89404296875,103.91535949707031,46.423828125,103.91535949707031,45.9234619140625C103.91535949707031,45.4229736328125,103.81752014160156,44.9263916015625,103.61817932128906,44.489990234375C103.42256164550781,44.053466796875,103.15553283691406,43.6697998046875,102.82453918457031,43.338623046875C102.49354553222656,43.007568359375,102.10243225097656,42.7479248046875,101.65480041503906,42.559814453125C101.20722961425781,42.3717041015625,100.74458312988281,42.2777099609375,100.27070617675781,42.2777099609375C99.79670715332031,42.2777099609375,99.30403137207031,42.37548828125,98.86775207519531,42.574951171875C98.43147277832031,42.7742919921875,98.04780578613281,43.0301513671875,97.71675109863281,43.353759765625C97.38581848144531,43.67724609375,97.11872863769531,44.053466796875,96.92317199707031,44.489990234375C96.72389221191406,44.9263916015625,96.62605285644531,45.3929443359375,96.62605285644531,45.893310546875Z" class="cls-2"/></g></g><g id="shape-40c6b950-9038-8008-8006-74509a3d1338"><g class="fills" id="fills-40c6b950-9038-8008-8006-74509a3d1338"><path d="M112.72785949707031,31.8408203125C112.72785949707031,31.4044189453125,112.81062316894531,30.994384765625,112.97615051269531,30.610595703125C113.14155578613281,30.226806640625,113.37110900878906,29.88818359375,113.66072082519531,29.5985107421875C113.95027160644531,29.308837890625,114.28877258300781,29.079345703125,114.67243957519531,28.9136962890625C115.05610656738281,28.7481689453125,115.46607971191406,28.6654052734375,115.90235900878906,28.6654052734375C116.33869934082031,28.6654052734375,116.74867248535156,28.7481689453125,117.13227844238281,28.9136962890625C117.51594543457031,29.079345703125,117.85444641113281,29.308837890625,118.14405822753906,29.5985107421875C118.43367004394531,29.88818359375,118.66310119628906,30.226806640625,118.82856750488281,30.610595703125C118.99409484863281,30.994384765625,119.07679748535156,31.4044189453125,119.07679748535156,31.8408203125C119.07679748535156,32.27734375,118.99409484863281,32.6873779296875,118.82856750488281,33.0711669921875C118.66310119628906,33.4549560546875,118.43367004394531,33.7935791015625,118.14405822753906,34.083251953125C117.85444641113281,34.3729248046875,117.51594543457031,34.6024169921875,117.13227844238281,34.76806640625C116.74867248535156,34.9334716796875,116.33869934082031,35.016357421875,115.90235900878906,35.016357421875C115.46607971191406,35.016357421875,115.05610656738281,34.9334716796875,114.67243957519531,34.76806640625C114.28877258300781,34.6024169921875,113.95027160644531,34.3729248046875,113.66072082519531,34.083251953125C113.37110900878906,33.7935791015625,113.14155578613281,33.4549560546875,112.97615051269531,33.0711669921875C112.81062316894531,32.6873779296875,112.72785949707031,32.27734375,112.72785949707031,31.8408203125ZM118.73835754394531,37.977294921875L118.73835754394531,53.9598388671875L113.10023498535156,53.9598388671875L113.10023498535156,37.977294921875L118.73835754394531,37.977294921875Z" class="cls-2"/></g></g><g id="shape-40c6b950-9038-8008-8006-74509a3d1339"><g class="fills" id="fills-40c6b950-9038-8008-8006-74509a3d1339"><path d="M128.8936309814453,42.6839599609375L128.8936309814453,53.963623046875L123.25556945800781,53.963623046875L123.25556945800781,42.6839599609375L121.38624572753906,42.6839599609375L121.38624572753906,37.9810791015625L123.25556945800781,37.9810791015625L123.25556945800781,33.18408203125L128.8936309814453,33.18408203125L128.8936309814453,37.9810791015625L132.10194396972656,37.9810791015625L132.10194396972656,42.6839599609375L128.8936309814453,42.6839599609375Z" class="cls-2"/></g></g><g id="shape-40c6b950-9038-8008-8006-74509a3d133a"><g class="fills" id="fills-40c6b950-9038-8008-8006-74509a3d133a"><path d="M146.86109924316406,37.977294921875L152.52931213378906,37.977294921875L152.52931213378906,53.9598388671875L146.86109924316406,53.9598388671875L146.86109924316406,52.1839599609375C145.65748596191406,53.7001953125,144.0251007080078,54.4564208984375,141.97145080566406,54.4564208984375C140.80921936035156,54.4564208984375,139.74110412597656,54.241943359375,138.7631378173828,53.81689453125C137.7852325439453,53.3917236328125,136.93519592285156,52.79345703125,136.20924377441406,52.0260009765625C135.4833526611328,51.2584228515625,134.91542053222656,50.35546875,134.51295471191406,49.3170166015625C134.10670471191406,48.2786865234375,133.9074249267578,47.1461181640625,133.9074249267578,45.919677734375C133.9074249267578,44.77587890625,134.10292053222656,43.6922607421875,134.4978790283203,42.6651611328125C134.89283752441406,41.6380615234375,135.4419708251953,40.7388916015625,136.14906311035156,39.9713134765625C136.8561553955078,39.203857421875,137.6949005126953,38.5943603515625,138.67286682128906,38.150390625C139.6470489501953,37.70263671875,140.7303009033203,37.480712890625,141.91127014160156,37.480712890625C143.9047393798828,37.480712890625,145.5558624267578,38.1766357421875,146.86476135253906,39.5687255859375L146.86476135253906,37.9810791015625ZM139.7598419189453,45.9234619140625C139.7598419189453,46.442626953125,139.85389709472656,46.9241943359375,140.04188537597656,47.3719482421875C140.22999572753906,47.819580078125,140.4820098876953,48.2071533203125,140.8054962158203,48.5419921875C141.1251983642578,48.873046875,141.51258850097656,49.1326904296875,141.9563751220703,49.32080078125C142.4040069580078,49.5089111328125,142.8854522705078,49.60302734375,143.4044952392578,49.60302734375C143.9235382080078,49.60302734375,144.37489318847656,49.5089111328125,144.82252502441406,49.32080078125C145.27003479003906,49.1326904296875,145.65370178222656,48.873046875,145.97340393066406,48.5419921875C146.29310607910156,48.2109375,146.55262756347656,47.8271484375,146.75196838378906,47.3907470703125C146.94752502441406,46.954345703125,147.04908752441406,46.48779296875,147.04908752441406,45.9873046875C147.04908752441406,45.4869384765625,146.95143127441406,45.0167236328125,146.75196838378906,44.5689697265625C146.55641174316406,44.1212158203125,146.29689025878906,43.733642578125,145.97340393066406,43.3988037109375C145.64991760253906,43.0677490234375,145.26625061035156,42.8082275390625,144.82252502441406,42.6199951171875C144.37489318847656,42.431884765625,143.9047393798828,42.337890625,143.4044952392578,42.337890625C142.9042510986328,42.337890625,142.4040069580078,42.431884765625,141.9563751220703,42.6199951171875C141.50880432128906,42.8082275390625,141.1251983642578,43.0677490234375,140.8054962158203,43.3988037109375C140.4820098876953,43.72998046875,140.22999572753906,44.1099853515625,140.04188537597656,44.5350341796875C139.85389709472656,44.960205078125,139.7598419189453,45.4229736328125,139.7598419189453,45.9234619140625Z" class="cls-2"/></g></g><g id="shape-40c6b950-9038-8008-8006-74509a3d133b"><g class="fills" id="fills-40c6b950-9038-8008-8006-74509a3d133b"><path d="M162.00001525878906,28.10107421875L162.00001525878906,53.9598388671875L156.36183166503906,53.9598388671875L156.36183166503906,28.10107421875L162.00001525878906,28.10107421875Z" class="cls-2"/></g></g><g id="shape-40c6b950-9038-8008-8006-74509a3d133c"><g class="fills" id="fills-40c6b950-9038-8008-8006-74509a3d133c"><path d="M27.490859985351562,21.863037109375L6.5219879150390625,42.83447265625L12.457168579101562,48.771484375L23.786026000976562,37.4429931640625L23.940200805664062,54.1629638671875L32.33155822753906,54.083984375L32.18104553222656,37.860595703125L43.14881896972656,48.240966796875L48.91481018066406,42.1422119140625L27.490859985351562,21.863037109375Z" class="cls-2"/></g></g><g id="shape-40c6b950-9038-8008-8006-74509a3d133d"><g class="fills" id="fills-40c6b950-9038-8008-8006-74509a3d133d"><path d="M27.445693969726562,18.8155517578125L42.59974670410156,33.15771484375L56.05366516113281,33.101318359375L56.00849914550781,22.521484375L40.29408264160156,22.5892333984375L50.96846008300781,10.978515625L43.18263244628906,3.81884765625L32.77540588378906,14.9478759765625L33.05372619628906,-9.094947017729282e-13L22.488418579101562,-9.094947017729282e-13L21.882827758789062,14.54150390625L12.024673461914062,3.81884765625L4.2389068603515625,10.978515625L15.014785766601562,22.6983642578125L0.0000152587890625,22.7623291015625L0.0450592041015625,33.342041015625L12.983779907226562,33.28564453125L27.445693969726562,18.8155517578125Z" class="cls-1"/></g></g></g></svg>